# Blender v2.79 (sub 0) OBJ File: 'decoupler_3m_simple.blend'
# www.blender.org
mtllib decoupler_3m_simple.mtl
o Cylinder
v 0.000000 -0.150000 -1.500000
v 0.000000 0.150000 -1.500000
v 1.060660 -0.150000 -1.060660
v 1.060660 0.150000 -1.060660
v 1.500000 -0.150000 0.000000
v 1.500000 0.150000 0.000000
v 1.060660 -0.150000 1.060660
v 1.060660 0.150000 1.060660
v -0.000000 -0.150000 1.500000
v -0.000000 0.150000 1.500000
v -1.060660 -0.150000 1.060660
v -1.060660 0.150000 1.060660
v -1.500000 -0.150000 -0.000000
v -1.500000 0.150000 -0.000000
v -1.060660 -0.150000 -1.060660
v -1.060660 0.150000 -1.060660
v 0.000000 -0.120000 -1.500000
v 1.060660 -0.120000 -1.060660
v 1.500000 -0.120000 0.000000
v 1.060660 -0.120000 1.060660
v -0.000000 -0.120000 1.500000
v -1.060660 -0.120000 1.060660
v -1.500000 -0.120000 -0.000000
v -1.060660 -0.120000 -1.060660
v 0.000000 0.116250 -1.500000
v 1.060660 0.116250 -1.060660
v 1.500000 0.116250 0.000000
v 1.060660 0.116250 1.060660
v -0.000000 0.116250 1.500000
v -1.060660 0.116250 1.060660
v -1.500000 0.116250 -0.000000
v -1.060660 0.116250 -1.060660
v -0.000000 -0.120000 -1.477500
v 1.044750 -0.120000 -1.044750
v 1.477500 -0.120000 0.000000
v 1.044750 -0.120000 1.044750
v -0.000000 -0.120000 1.477500
v -1.044750 -0.120000 1.044750
v -1.477500 -0.120000 -0.000000
v -1.044750 -0.120000 -1.044750
v -0.000000 0.116250 -1.477500
v 1.044750 0.116250 -1.044750
v 1.477500 0.116250 0.000000
v 1.044750 0.116250 1.044750
v -0.000000 0.116250 1.477500
v -1.044750 0.116250 1.044750
v -1.477500 0.116250 -0.000000
v -1.044750 0.116250 -1.044750
vn 0.3827 0.0000 -0.9239
vn 0.9239 0.0000 -0.3827
vn 0.9239 0.0000 0.3827
vn 0.3827 0.0000 0.9239
vn -0.3827 0.0000 0.9239
vn -0.9239 0.0000 0.3827
vn 0.0000 1.0000 0.0000
vn -0.9239 0.0000 -0.3827
vn -0.3827 0.0000 -0.9239
vn 0.0000 -1.0000 0.0000
usemtl None
s off
f 25//1 2//1 4//1 26//1
f 26//2 4//2 6//2 27//2
f 27//3 6//3 8//3 28//3
f 28//4 8//4 10//4 29//4
f 29//5 10//5 12//5 30//5
f 30//6 12//6 14//6 31//6
f 4//7 2//7 16//7 14//7 12//7 10//7 8//7 6//7
f 31//8 14//8 16//8 32//8
f 32//9 16//9 2//9 25//9
f 1//10 3//10 5//10 7//10 9//10 11//10 13//10 15//10
f 15//9 24//9 17//9 1//9
f 13//8 23//8 24//8 15//8
f 11//6 22//6 23//6 13//6
f 9//5 21//5 22//5 11//5
f 7//4 20//4 21//4 9//4
f 5//3 19//3 20//3 7//3
f 3//2 18//2 19//2 5//2
f 1//1 17//1 18//1 3//1
f 32//10 25//10 41//10 48//10
f 24//7 23//7 39//7 40//7
f 25//10 26//10 42//10 41//10
f 17//7 24//7 40//7 33//7
f 26//10 27//10 43//10 42//10
f 18//7 17//7 33//7 34//7
f 27//10 28//10 44//10 43//10
f 19//7 18//7 34//7 35//7
f 40//9 48//9 41//9 33//9
f 39//8 47//8 48//8 40//8
f 38//6 46//6 47//6 39//6
f 37//5 45//5 46//5 38//5
f 36//4 44//4 45//4 37//4
f 35//3 43//3 44//3 36//3
f 34//2 42//2 43//2 35//2
f 33//1 41//1 42//1 34//1
f 23//7 22//7 38//7 39//7
f 31//10 32//10 48//10 47//10
f 22//7 21//7 37//7 38//7
f 30//10 31//10 47//10 46//10
f 21//7 20//7 36//7 37//7
f 29//10 30//10 46//10 45//10
f 20//7 19//7 35//7 36//7
f 28//10 29//10 45//10 44//10
