# Blender v2.79 (sub 0) OBJ File: 'engine_3m.blend'
# www.blender.org
mtllib engine_3m.mtl
o Cylinder_Cylinder.001
v 0.000000 -1.500000 -1.500000
v -0.000000 1.500000 -1.500000
v 1.060660 -1.500000 -1.060660
v 1.060660 1.500000 -1.060660
v 1.500000 -1.500000 0.000000
v 1.500000 1.500000 0.000000
v 1.060660 -1.500000 1.060660
v 1.060660 1.500000 1.060660
v -0.000000 -1.500000 1.500000
v -0.000000 1.500000 1.500000
v -1.060660 -1.500000 1.060660
v -1.060660 1.500000 1.060660
v -1.500000 -1.500000 0.000000
v -1.500000 1.500000 -0.000000
v -1.060660 -1.500000 -1.060660
v -1.060660 1.500000 -1.060660
v -0.000000 1.100620 -0.708741
v 0.501156 1.100620 -0.501156
v 0.708742 1.100620 0.000000
v 0.501156 1.100620 0.501156
v -0.000000 1.100620 0.708742
v -0.501156 1.100620 0.501156
v -0.708741 1.100620 -0.000000
v -0.501156 1.100620 -0.501156
v 0.661539 0.684122 -0.661539
v 0.792705 0.261136 -0.792705
v 0.891297 -0.172662 -0.891296
v 0.963852 -0.617132 -0.963852
v 1.021805 -1.068533 -1.021805
v 0.935558 0.684122 0.000000
v 1.121054 0.261136 0.000000
v 1.260484 -0.172662 0.000000
v 1.363093 -0.617132 0.000000
v 1.445051 -1.068533 0.000000
v 0.661539 0.684122 0.661539
v 0.792705 0.261136 0.792705
v 0.891296 -0.172662 0.891297
v 0.963852 -0.617132 0.963852
v 1.021805 -1.068533 1.021805
v -0.000000 0.684122 0.935558
v -0.000000 0.261136 1.121054
v -0.000000 -0.172662 1.260484
v -0.000000 -0.617132 1.363093
v -0.000000 -1.068533 1.445051
v -0.661539 0.684122 0.661539
v -0.792705 0.261136 0.792705
v -0.891297 -0.172662 0.891296
v -0.963852 -0.617132 0.963852
v -1.021806 -1.068533 1.021805
v -0.935558 0.684122 -0.000000
v -1.121054 0.261136 -0.000000
v -1.260484 -0.172662 0.000000
v -1.363093 -0.617132 0.000000
v -1.445051 -1.068533 0.000000
v -0.661539 0.684122 -0.661539
v -0.792705 0.261136 -0.792705
v -0.891297 -0.172662 -0.891296
v -0.963852 -0.617132 -0.963852
v -1.021806 -1.068533 -1.021805
v 0.000000 -1.068533 -1.445051
v -0.000000 -0.617132 -1.363093
v 0.000000 -0.172662 -1.260484
v -0.000000 0.261136 -1.121054
v -0.000000 0.684122 -0.935558
v 0.000000 1.285998 -1.076016
v 0.760858 1.285998 -0.760858
v 1.076016 1.285998 0.000000
v 0.760858 1.285998 0.760858
v -0.000000 1.285998 1.076016
v -0.760858 1.285998 0.760858
v -1.076016 1.285998 -0.000000
v -0.760858 1.285998 -0.760858
v 0.734871 1.285998 -0.734871
v 0.484039 1.129300 -0.484039
v 1.039265 1.285998 0.000000
v 0.684535 1.129300 0.000000
v 0.734871 1.285998 0.734871
v 0.484039 1.129300 0.484039
v -0.000000 1.285998 1.039265
v -0.000000 1.129300 0.684535
v -0.734871 1.285998 0.734871
v -0.484039 1.129300 0.484039
v -1.039265 1.285998 -0.000000
v -0.684535 1.129300 -0.000000
v -0.734871 1.285998 -0.734871
v -0.484039 1.129300 -0.484039
v 0.000000 1.129300 -0.684535
v 0.000000 1.285998 -1.039265
v 0.000000 -1.500000 -1.447828
v 1.023769 -1.500000 -1.023769
v 1.447828 -1.500000 0.000000
v 1.023769 -1.500000 1.023769
v -0.000000 -1.500000 1.447828
v -1.023769 -1.500000 1.023769
v -1.447828 -1.500000 -0.000000
v -1.023769 -1.500000 -1.023769
v 0.000000 -1.057558 -1.413771
v 0.999687 -1.057558 -0.999687
v 1.413771 -1.057558 0.000000
v 0.999687 -1.057558 0.999687
v -0.000000 -1.057558 1.413771
v -0.999687 -1.057558 0.999687
v -1.413771 -1.057558 -0.000000
v -0.999687 -1.057558 -0.999687
v 0.000000 -0.536314 -1.317341
v 0.931501 -0.536314 -0.931501
v 1.317341 -0.536314 0.000000
v 0.931500 -0.536314 0.931501
v -0.000000 -0.536314 1.317341
v -0.931501 -0.536314 0.931500
v -1.317341 -0.536314 -0.000000
v -0.931501 -0.536314 -0.931500
v 0.000000 0.118582 -1.134284
v 0.802060 0.118582 -0.802060
v 1.134284 0.118582 0.000000
v 0.802060 0.118582 0.802060
v -0.000000 0.118582 1.134284
v -0.802060 0.118582 0.802060
v -1.134284 0.118582 -0.000000
v -0.802060 0.118582 -0.802060
v 0.000000 0.863693 -0.807556
v 0.571028 0.863693 -0.571028
v 0.807556 0.863693 0.000000
v 0.571028 0.863693 0.571028
v -0.000000 0.863693 0.807556
v -0.571028 0.863693 0.571028
v -0.807556 0.863693 -0.000000
v -0.571028 0.863693 -0.571028
v -0.000000 1.070854 -0.124574
v 0.088087 1.070854 -0.088087
v 0.124574 1.070854 -0.000000
v 0.088087 1.070854 0.088087
v -0.000000 1.070854 0.124574
v -0.088087 1.070854 0.088087
v -0.124574 1.070854 -0.000000
v -0.088087 1.070854 -0.088087
v 0.406377 0.982012 -0.406377
v 0.000000 0.982012 -0.574704
v -0.406377 0.982012 -0.406377
v -0.574704 0.982012 -0.000000
v -0.406377 0.982012 0.406377
v -0.000000 0.982012 0.574704
v 0.406377 0.982012 0.406377
v 0.574704 0.982012 0.000000
v 0.251826 1.042725 -0.251826
v -0.356135 1.042725 -0.000000
v -0.000000 1.042725 0.356135
v 0.356135 1.042725 0.000000
v -0.000000 1.042725 -0.356135
v -0.251826 1.042725 -0.251826
v -0.251826 1.042725 0.251826
v 0.251826 1.042725 0.251826
v -0.994184 0.491138 -0.000000
v -0.702994 0.491138 0.702994
v -0.000000 0.491138 0.994184
v 0.702994 0.491138 0.702994
v 0.994184 0.491138 0.000000
v 0.702994 0.491138 -0.702994
v -0.702994 0.491138 -0.702994
v 0.000000 0.491138 -0.994184
v -0.877939 -0.198842 -0.877938
v -1.241593 -0.198842 -0.000000
v -0.877939 -0.198842 0.877938
v -0.000000 -0.198842 1.241593
v 0.877938 -0.198842 0.877939
v 1.241593 -0.198842 0.000000
v 0.877939 -0.198842 -0.877938
v 0.000000 -0.198842 -1.241593
vn 0.1835 -0.8776 -0.4429
vn 0.4429 -0.8776 -0.1835
vn 0.4429 -0.8776 0.1835
vn 0.1835 -0.8776 0.4429
vn -0.1835 -0.8776 0.4429
vn -0.4429 -0.8776 0.1835
vn 0.0000 1.0000 0.0000
vn -0.4429 -0.8776 -0.1835
vn -0.1835 -0.8776 -0.4429
vn 0.0000 -1.0000 -0.0000
vn -0.3419 0.4494 -0.8253
vn -0.8253 0.4494 -0.3419
vn -0.8253 0.4494 0.3419
vn -0.3419 0.4494 0.8253
vn 0.3419 0.4494 0.8253
vn 0.8253 0.4494 0.3419
vn 0.8253 0.4494 -0.3419
vn 0.3419 0.4494 -0.8253
vn 0.3801 0.1169 -0.9176
vn 0.3774 0.1654 -0.9111
vn 0.3743 0.2086 -0.9036
vn 0.3669 0.2847 -0.8857
vn 0.3547 0.3755 -0.8563
vn 0.9176 0.1169 -0.3801
vn 0.9111 0.1654 -0.3774
vn 0.9036 0.2086 -0.3743
vn 0.8857 0.2847 -0.3669
vn 0.8563 0.3755 -0.3547
vn 0.9176 0.1169 0.3801
vn 0.9111 0.1654 0.3774
vn 0.9036 0.2086 0.3743
vn 0.8857 0.2847 0.3669
vn 0.8563 0.3755 0.3547
vn 0.3801 0.1169 0.9176
vn 0.3774 0.1654 0.9111
vn 0.3743 0.2086 0.9036
vn 0.3669 0.2847 0.8857
vn 0.3547 0.3755 0.8563
vn -0.3801 0.1169 0.9176
vn -0.3774 0.1654 0.9111
vn -0.3743 0.2086 0.9036
vn -0.3669 0.2847 0.8857
vn -0.3547 0.3755 0.8563
vn -0.9176 0.1169 0.3801
vn -0.9111 0.1654 0.3774
vn -0.9036 0.2086 0.3743
vn -0.8857 0.2847 0.3669
vn -0.8563 0.3755 0.3547
vn -0.9176 0.1169 -0.3801
vn -0.9111 0.1654 -0.3774
vn -0.9036 0.2086 -0.3743
vn -0.8857 0.2847 -0.3669
vn -0.8563 0.3755 -0.3547
vn -0.3801 0.1169 -0.9176
vn -0.3774 0.1654 -0.9111
vn -0.3743 0.2086 -0.9036
vn -0.3669 0.2847 -0.8857
vn -0.3547 0.3755 -0.8563
vn -0.3018 0.6149 -0.7286
vn 0.3018 0.6149 -0.7286
vn 0.7286 0.6149 -0.3018
vn 0.7286 0.6149 0.3018
vn -0.1651 -0.9022 -0.3985
vn -0.3985 -0.9022 -0.1651
vn -0.3985 -0.9022 0.1651
vn -0.1651 -0.9022 0.3985
vn 0.1651 -0.9022 0.3985
vn 0.3985 -0.9022 0.1651
vn 0.3985 -0.9022 -0.1651
vn 0.1651 -0.9022 -0.3985
vn -0.7286 0.6149 -0.3018
vn -0.7286 0.6149 0.3018
vn -0.3018 0.6149 0.7286
vn 0.3018 0.6149 0.7286
vn 0.3817 -0.0709 0.9216
vn 0.3772 -0.1685 -0.9107
vn 0.9216 -0.0709 -0.3817
vn -0.3817 -0.0709 -0.9216
vn -0.9216 -0.0709 0.3817
vn 0.9216 -0.0709 0.3817
vn 0.3817 -0.0709 -0.9216
vn -0.9216 -0.0709 -0.3817
vn -0.3817 -0.0709 0.9216
vn 0.8819 -0.2981 0.3653
vn -0.9107 -0.1685 -0.3772
vn -0.3772 -0.1685 0.9107
vn 0.3772 -0.1685 0.9107
vn 0.9107 -0.1685 -0.3772
vn -0.3772 -0.1685 -0.9107
vn -0.9107 -0.1685 0.3772
vn 0.9107 -0.1685 0.3772
vn 0.8384 -0.4200 -0.3473
vn 0.3653 -0.2981 -0.8819
vn -0.8819 -0.2981 -0.3653
vn -0.3653 -0.2981 0.8819
vn 0.3653 -0.2981 0.8819
vn 0.8819 -0.2981 -0.3653
vn -0.3653 -0.2981 -0.8819
vn -0.8819 -0.2981 0.3653
vn -0.0499 -0.9915 0.1204
vn -0.3473 -0.4200 -0.8384
vn -0.8384 -0.4200 0.3473
vn 0.8384 -0.4200 0.3473
vn 0.3473 -0.4200 -0.8384
vn -0.8384 -0.4200 -0.3473
vn -0.3473 -0.4200 0.8384
vn 0.3473 -0.4200 0.8384
vn 0.0499 -0.9915 0.1204
vn 0.1204 -0.9915 -0.0499
vn -0.0499 -0.9915 -0.1204
vn -0.1204 -0.9915 0.0499
vn 0.1204 -0.9915 0.0499
vn 0.0499 -0.9915 -0.1204
vn -0.1204 -0.9915 -0.0499
vn -0.4452 -0.8762 -0.1844
vn 0.1844 -0.8762 -0.4452
vn 0.4452 -0.8762 0.1844
vn -0.4452 -0.8762 0.1844
vn -0.1844 -0.8762 -0.4452
vn 0.4452 -0.8762 -0.1844
vn 0.1844 -0.8762 0.4452
vn -0.1844 -0.8762 0.4452
vn -0.2660 -0.9577 -0.1102
vn 0.1102 -0.9577 -0.2660
vn 0.2660 -0.9577 0.1102
vn -0.2660 -0.9577 0.1102
vn -0.1102 -0.9577 -0.2660
vn 0.2660 -0.9577 -0.1102
vn 0.1102 -0.9577 0.2660
vn -0.1102 -0.9577 0.2660
vn 0.3615 -0.3282 0.8727
vn -0.3615 -0.3282 0.8727
vn -0.8727 -0.3282 -0.3615
vn 0.3615 -0.3282 -0.8727
vn 0.8727 -0.3282 0.3615
vn -0.8727 -0.3282 0.3615
vn -0.3615 -0.3282 -0.8727
vn 0.8727 -0.3282 -0.3615
vn -0.9046 -0.2031 0.3747
vn -0.3747 -0.2031 -0.9046
vn 0.9046 -0.2031 -0.3747
vn 0.3747 -0.2031 0.9046
vn -0.3747 -0.2031 0.9046
vn -0.9046 -0.2031 -0.3747
vn 0.3747 -0.2031 -0.9046
vn 0.9046 -0.2031 0.3747
usemtl None
s off
f 65//1 2//1 4//1 66//1
f 66//2 4//2 6//2 67//2
f 67//3 6//3 8//3 68//3
f 68//4 8//4 10//4 69//4
f 69//5 10//5 12//5 70//5
f 70//6 12//6 14//6 71//6
f 4//7 2//7 16//7 14//7 12//7 10//7 8//7 6//7
f 71//8 14//8 16//8 72//8
f 72//9 16//9 2//9 65//9
f 7//10 9//10 93//10 92//10
f 55//11 24//11 17//11 64//11
f 50//12 23//12 24//12 55//12
f 45//13 22//13 23//13 50//13
f 40//14 21//14 22//14 45//14
f 35//15 20//15 21//15 40//15
f 30//16 19//16 20//16 35//16
f 25//17 18//17 19//17 30//17
f 64//18 17//18 18//18 25//18
f 1//19 60//19 29//19 3//19
f 60//20 61//20 28//20 29//20
f 61//21 62//21 27//21 28//21
f 62//22 63//22 26//22 27//22
f 63//23 64//23 25//23 26//23
f 3//24 29//24 34//24 5//24
f 29//25 28//25 33//25 34//25
f 28//26 27//26 32//26 33//26
f 27//27 26//27 31//27 32//27
f 26//28 25//28 30//28 31//28
f 5//29 34//29 39//29 7//29
f 34//30 33//30 38//30 39//30
f 33//31 32//31 37//31 38//31
f 32//32 31//32 36//32 37//32
f 31//33 30//33 35//33 36//33
f 7//34 39//34 44//34 9//34
f 39//35 38//35 43//35 44//35
f 38//36 37//36 42//36 43//36
f 37//37 36//37 41//37 42//37
f 36//38 35//38 40//38 41//38
f 9//39 44//39 49//39 11//39
f 44//40 43//40 48//40 49//40
f 43//41 42//41 47//41 48//41
f 42//42 41//42 46//42 47//42
f 41//43 40//43 45//43 46//43
f 11//44 49//44 54//44 13//44
f 49//45 48//45 53//45 54//45
f 48//46 47//46 52//46 53//46
f 47//47 46//47 51//47 52//47
f 46//48 45//48 50//48 51//48
f 13//49 54//49 59//49 15//49
f 54//50 53//50 58//50 59//50
f 53//51 52//51 57//51 58//51
f 52//52 51//52 56//52 57//52
f 51//53 50//53 55//53 56//53
f 15//54 59//54 60//54 1//54
f 59//55 58//55 61//55 60//55
f 58//56 57//56 62//56 61//56
f 57//57 56//57 63//57 62//57
f 56//58 55//58 64//58 63//58
f 17//59 24//59 86//59 87//59
f 72//10 65//10 88//10 85//10
f 18//60 17//60 87//60 74//60
f 65//10 66//10 73//10 88//10
f 19//61 18//61 74//61 76//61
f 66//10 67//10 75//10 73//10
f 20//62 19//62 76//62 78//62
f 67//10 68//10 77//10 75//10
f 86//63 85//63 88//63 87//63
f 84//64 83//64 85//64 86//64
f 82//65 81//65 83//65 84//65
f 80//66 79//66 81//66 82//66
f 78//67 77//67 79//67 80//67
f 76//68 75//68 77//68 78//68
f 74//69 73//69 75//69 76//69
f 87//70 88//70 73//70 74//70
f 71//10 72//10 85//10 83//10
f 24//71 23//71 84//71 86//71
f 70//10 71//10 83//10 81//10
f 23//72 22//72 82//72 84//72
f 69//10 70//10 81//10 79//10
f 22//73 21//73 80//73 82//73
f 68//10 69//10 79//10 77//10
f 21//74 20//74 78//74 80//74
f 96//75 89//75 97//75 104//75
f 13//10 15//10 96//10 95//10
f 3//10 5//10 91//10 90//10
f 9//10 11//10 94//10 93//10
f 15//10 1//10 89//10 96//10
f 1//10 3//10 90//10 89//10
f 5//10 7//10 92//10 91//10
f 11//10 13//10 95//10 94//10
f 101//76 102//76 110//76 109//76
f 94//77 95//77 103//77 102//77
f 92//78 93//78 101//78 100//78
f 90//79 91//79 99//79 98//79
f 95//80 96//80 104//80 103//80
f 93//81 94//81 102//81 101//81
f 91//82 92//82 100//82 99//82
f 89//83 90//83 98//83 97//83
f 162//84 161//84 120//84 119//84
f 99//85 100//85 108//85 107//85
f 97//86 98//86 106//86 105//86
f 104//87 97//87 105//87 112//87
f 102//88 103//88 111//88 110//88
f 100//89 101//89 109//89 108//89
f 98//90 99//90 107//90 106//90
f 103//91 104//91 112//91 111//91
f 154//92 153//92 127//92 126//92
f 164//93 163//93 118//93 117//93
f 166//94 165//94 116//94 115//94
f 168//95 167//95 114//95 113//95
f 161//96 168//96 113//96 120//96
f 163//97 162//97 119//97 118//97
f 165//98 164//98 117//98 116//98
f 167//99 166//99 115//99 114//99
f 149//100 145//100 130//100 129//100
f 156//101 155//101 125//101 124//101
f 158//102 157//102 123//102 122//102
f 153//103 159//103 128//103 127//103
f 155//104 154//104 126//104 125//104
f 157//105 156//105 124//105 123//105
f 160//106 158//106 122//106 121//106
f 159//107 160//107 121//107 128//107
f 129//10 130//10 131//10 132//10 133//10 134//10 135//10 136//10
f 150//108 149//108 129//108 136//108
f 151//109 146//109 135//109 134//109
f 152//110 147//110 133//110 132//110
f 145//111 148//111 131//111 130//111
f 146//112 150//112 136//112 135//112
f 147//113 151//113 134//113 133//113
f 148//114 152//114 132//114 131//114
f 123//115 124//115 143//115 144//115
f 125//116 126//116 141//116 142//116
f 127//117 128//117 139//117 140//117
f 122//118 123//118 144//118 137//118
f 124//119 125//119 142//119 143//119
f 126//120 127//120 140//120 141//120
f 128//121 121//121 138//121 139//121
f 121//122 122//122 137//122 138//122
f 144//123 143//123 152//123 148//123
f 142//124 141//124 151//124 147//124
f 140//125 139//125 150//125 146//125
f 137//126 144//126 148//126 145//126
f 143//127 142//127 147//127 152//127
f 141//128 140//128 146//128 151//128
f 139//129 138//129 149//129 150//129
f 138//130 137//130 145//130 149//130
f 120//131 113//131 160//131 159//131
f 113//132 114//132 158//132 160//132
f 115//133 116//133 156//133 157//133
f 117//134 118//134 154//134 155//134
f 119//135 120//135 159//135 153//135
f 114//136 115//136 157//136 158//136
f 116//137 117//137 155//137 156//137
f 118//138 119//138 153//138 154//138
f 106//139 107//139 166//139 167//139
f 108//140 109//140 164//140 165//140
f 110//141 111//141 162//141 163//141
f 112//142 105//142 168//142 161//142
f 105//143 106//143 167//143 168//143
f 107//144 108//144 165//144 166//144
f 109//145 110//145 163//145 164//145
f 111//146 112//146 161//146 162//146
