# Blender v2.79 (sub 0) OBJ File: 'engine_updated.blend'
# www.blender.org
mtllib engine_top_updated.mtl
o Cylinder.002
v 0.000000 1.000000 -1.000000
v 0.098017 1.000000 -0.995185
v 0.195090 1.000000 -0.980785
v 0.290285 1.000000 -0.956940
v 0.382683 1.000000 -0.923880
v 0.471397 1.000000 -0.881921
v 0.555570 1.000000 -0.831470
v 0.634393 1.000000 -0.773010
v 0.707107 1.000000 -0.707107
v 0.773010 1.000000 -0.634393
v 0.831470 1.000000 -0.555570
v 0.881921 1.000000 -0.471397
v 0.923880 1.000000 -0.382683
v 0.956940 1.000000 -0.290285
v 0.980785 1.000000 -0.195090
v 0.995185 1.000000 -0.098017
v 1.000000 1.000000 0.000000
v 0.995185 1.000000 0.098017
v 0.980785 1.000000 0.195091
v 0.956940 1.000000 0.290285
v 0.923879 1.000000 0.382684
v 0.881921 1.000000 0.471397
v 0.831469 1.000000 0.555571
v 0.773010 1.000000 0.634394
v 0.707106 1.000000 0.707107
v 0.634393 1.000000 0.773011
v 0.555570 1.000000 0.831470
v 0.471396 1.000000 0.881922
v 0.382683 1.000000 0.923880
v 0.290284 1.000000 0.956941
v 0.195090 1.000000 0.980785
v 0.098016 1.000000 0.995185
v -0.000001 1.000000 1.000000
v -0.098018 1.000000 0.995185
v -0.195091 1.000000 0.980785
v -0.290286 1.000000 0.956940
v -0.382684 1.000000 0.923879
v -0.471398 1.000000 0.881921
v -0.555571 1.000000 0.831469
v -0.634394 1.000000 0.773010
v -0.707108 1.000000 0.707106
v -0.773011 1.000000 0.634393
v -0.831470 1.000000 0.555570
v -0.881922 1.000000 0.471396
v -0.923880 1.000000 0.382683
v -0.956940 1.000000 0.290285
v -0.980785 1.000000 0.195090
v -0.995185 1.000000 0.098017
v -1.000000 1.000000 0.000000
v -0.995185 1.000000 -0.098016
v -0.980785 1.000000 -0.195089
v -0.956941 1.000000 -0.290284
v -0.923880 1.000000 -0.382682
v -0.881922 1.000000 -0.471395
v -0.831471 1.000000 -0.555569
v -0.773012 1.000000 -0.634392
v -0.707108 1.000000 -0.707105
v -0.634395 1.000000 -0.773009
v -0.555572 1.000000 -0.831468
v -0.471399 1.000000 -0.881920
v -0.382686 1.000000 -0.923878
v -0.290288 1.000000 -0.956939
v -0.195093 1.000000 -0.980785
v -0.098021 1.000000 -0.995184
v -0.000000 0.600000 -0.398676
v 0.039077 0.600000 -0.396756
v 0.077777 0.600000 -0.391015
v 0.115729 0.600000 -0.381509
v 0.152566 0.600000 -0.368329
v 0.187934 0.600000 -0.351601
v 0.221492 0.600000 -0.331487
v 0.252917 0.600000 -0.308181
v 0.281906 0.600000 -0.281906
v 0.308180 0.600000 -0.252917
v 0.331487 0.600000 -0.221492
v 0.351601 0.600000 -0.187934
v 0.368328 0.600000 -0.152567
v 0.381509 0.600000 -0.115729
v 0.391015 0.600000 -0.077778
v 0.396756 0.600000 -0.039077
v 0.398676 0.600000 0.000000
v 0.396756 0.600000 0.039077
v 0.391015 0.600000 0.077778
v 0.381509 0.600000 0.115730
v 0.368328 0.600000 0.152567
v 0.351600 0.600000 0.187935
v 0.331487 0.600000 0.221493
v 0.308180 0.600000 0.252918
v 0.281906 0.600000 0.281907
v 0.252917 0.600000 0.308181
v 0.221492 0.600000 0.331487
v 0.187934 0.600000 0.351601
v 0.152566 0.600000 0.368329
v 0.115729 0.600000 0.381509
v 0.077777 0.600000 0.391016
v 0.039076 0.600000 0.396757
v -0.000001 0.600000 0.398676
v -0.039078 0.600000 0.396757
v -0.077779 0.600000 0.391016
v -0.115730 0.600000 0.381509
v -0.152567 0.600000 0.368329
v -0.187935 0.600000 0.351601
v -0.221493 0.600000 0.331487
v -0.252918 0.600000 0.308181
v -0.281907 0.600000 0.281906
v -0.308181 0.600000 0.252917
v -0.331488 0.600000 0.221492
v -0.351601 0.600000 0.187935
v -0.368329 0.600000 0.152567
v -0.381510 0.600000 0.115730
v -0.391016 0.600000 0.077778
v -0.396757 0.600000 0.039077
v -0.398676 0.600000 0.000000
v -0.396757 0.600000 -0.039077
v -0.391016 0.600000 -0.077777
v -0.381510 0.600000 -0.115729
v -0.368329 0.600000 -0.152566
v -0.351602 0.600000 -0.187934
v -0.331488 0.600000 -0.221492
v -0.308182 0.600000 -0.252917
v -0.281908 0.600000 -0.281906
v -0.252918 0.600000 -0.308180
v -0.221494 0.600000 -0.331486
v -0.187936 0.600000 -0.351600
v -0.152568 0.600000 -0.368328
v -0.115731 0.600000 -0.381509
v -0.077779 0.600000 -0.391015
v -0.039079 0.600000 -0.396756
vn 0.0272 -0.8323 -0.5536
vn 0.0813 -0.8323 -0.5483
vn 0.1347 -0.8323 -0.5377
vn 0.1867 -0.8323 -0.5219
vn 0.2370 -0.8323 -0.5011
vn 0.2850 -0.8323 -0.4755
vn 0.3302 -0.8323 -0.4452
vn 0.3723 -0.8323 -0.4107
vn 0.4107 -0.8323 -0.3723
vn 0.4452 -0.8323 -0.3302
vn 0.4755 -0.8323 -0.2850
vn 0.5011 -0.8323 -0.2370
vn 0.5219 -0.8323 -0.1867
vn 0.5377 -0.8323 -0.1347
vn 0.5483 -0.8323 -0.0813
vn 0.5536 -0.8323 -0.0272
vn 0.5536 -0.8323 0.0272
vn 0.5483 -0.8323 0.0813
vn 0.5377 -0.8323 0.1347
vn 0.5219 -0.8323 0.1867
vn 0.5011 -0.8323 0.2370
vn 0.4755 -0.8323 0.2850
vn 0.4452 -0.8323 0.3302
vn 0.4107 -0.8323 0.3723
vn 0.3723 -0.8323 0.4107
vn 0.3302 -0.8323 0.4452
vn 0.2850 -0.8323 0.4755
vn 0.2370 -0.8323 0.5011
vn 0.1867 -0.8323 0.5219
vn 0.1347 -0.8323 0.5377
vn 0.0813 -0.8323 0.5483
vn 0.0272 -0.8323 0.5536
vn -0.0272 -0.8323 0.5536
vn -0.0813 -0.8323 0.5483
vn -0.1347 -0.8323 0.5377
vn -0.1867 -0.8323 0.5219
vn -0.2370 -0.8323 0.5011
vn -0.2850 -0.8323 0.4755
vn -0.3302 -0.8323 0.4452
vn -0.3723 -0.8323 0.4107
vn -0.4107 -0.8323 0.3723
vn -0.4452 -0.8323 0.3302
vn -0.4755 -0.8323 0.2850
vn -0.5011 -0.8323 0.2370
vn -0.5219 -0.8323 0.1867
vn -0.5377 -0.8323 0.1347
vn -0.5483 -0.8323 0.0813
vn -0.5536 -0.8323 0.0272
vn -0.5536 -0.8323 -0.0272
vn -0.5483 -0.8323 -0.0813
vn -0.5377 -0.8323 -0.1347
vn -0.5219 -0.8323 -0.1867
vn -0.5011 -0.8323 -0.2370
vn -0.4755 -0.8323 -0.2850
vn -0.4452 -0.8323 -0.3302
vn -0.4107 -0.8323 -0.3723
vn -0.3723 -0.8323 -0.4107
vn -0.3302 -0.8323 -0.4452
vn -0.2850 -0.8323 -0.4755
vn -0.2370 -0.8323 -0.5011
vn -0.1867 -0.8323 -0.5219
vn -0.1347 -0.8323 -0.5377
vn 0.0000 1.0000 -0.0000
vn -0.0813 -0.8323 -0.5483
vn -0.0272 -0.8323 -0.5536
usemtl None
s off
f 65//1 1//1 2//1 66//1
f 66//2 2//2 3//2 67//2
f 67//3 3//3 4//3 68//3
f 68//4 4//4 5//4 69//4
f 69//5 5//5 6//5 70//5
f 70//6 6//6 7//6 71//6
f 71//7 7//7 8//7 72//7
f 72//8 8//8 9//8 73//8
f 73//9 9//9 10//9 74//9
f 74//10 10//10 11//10 75//10
f 75//11 11//11 12//11 76//11
f 76//12 12//12 13//12 77//12
f 77//13 13//13 14//13 78//13
f 78//14 14//14 15//14 79//14
f 79//15 15//15 16//15 80//15
f 80//16 16//16 17//16 81//16
f 81//17 17//17 18//17 82//17
f 82//18 18//18 19//18 83//18
f 83//19 19//19 20//19 84//19
f 84//20 20//20 21//20 85//20
f 85//21 21//21 22//21 86//21
f 86//22 22//22 23//22 87//22
f 87//23 23//23 24//23 88//23
f 88//24 24//24 25//24 89//24
f 89//25 25//25 26//25 90//25
f 90//26 26//26 27//26 91//26
f 91//27 27//27 28//27 92//27
f 92//28 28//28 29//28 93//28
f 93//29 29//29 30//29 94//29
f 94//30 30//30 31//30 95//30
f 95//31 31//31 32//31 96//31
f 96//32 32//32 33//32 97//32
f 97//33 33//33 34//33 98//33
f 98//34 34//34 35//34 99//34
f 99//35 35//35 36//35 100//35
f 100//36 36//36 37//36 101//36
f 101//37 37//37 38//37 102//37
f 102//38 38//38 39//38 103//38
f 103//39 39//39 40//39 104//39
f 104//40 40//40 41//40 105//40
f 105//41 41//41 42//41 106//41
f 106//42 42//42 43//42 107//42
f 107//43 43//43 44//43 108//43
f 108//44 44//44 45//44 109//44
f 109//45 45//45 46//45 110//45
f 110//46 46//46 47//46 111//46
f 111//47 47//47 48//47 112//47
f 112//48 48//48 49//48 113//48
f 113//49 49//49 50//49 114//49
f 114//50 50//50 51//50 115//50
f 115//51 51//51 52//51 116//51
f 116//52 52//52 53//52 117//52
f 117//53 53//53 54//53 118//53
f 118//54 54//54 55//54 119//54
f 119//55 55//55 56//55 120//55
f 120//56 56//56 57//56 121//56
f 121//57 57//57 58//57 122//57
f 122//58 58//58 59//58 123//58
f 123//59 59//59 60//59 124//59
f 124//60 60//60 61//60 125//60
f 125//61 61//61 62//61 126//61
f 126//62 62//62 63//62 127//62
f 2//63 1//63 64//63 63//63 62//63 61//63 60//63 59//63 58//63 57//63 56//63 55//63 54//63 53//63 52//63 51//63 50//63 49//63 48//63 47//63 46//63 45//63 44//63 43//63 42//63 41//63 40//63 39//63 38//63 37//63 36//63 35//63 34//63 33//63 32//63 31//63 30//63 29//63 28//63 27//63 26//63 25//63 24//63 23//63 22//63 21//63 20//63 19//63 18//63 17//63 16//63 15//63 14//63 13//63 12//63 11//63 10//63 9//63 8//63 7//63 6//63 5//63 4//63 3//63
f 127//64 63//64 64//64 128//64
f 128//65 64//65 1//65 65//65
